<svg xmlns="http://www.w3.org/2000/svg" width="311.5" height="35" viewBox="0 0 311.5 35"><rect class="svg__rect" x="0" y="0" width="115.31" height="35" fill="#005384"/><rect class="svg__rect" x="113.31" y="0" width="198.19" height="35" fill="#C13B3A"/><path class="svg__text" d="M15.69 22L14.22 22L14.22 13.47L16.14 13.47L18.60 20.01L21.06 13.47L22.97 13.47L22.97 22L21.49 22L21.49 19.19L21.64 15.43L19.12 22L18.06 22L15.55 15.43L15.69 19.19L15.69 22ZM28.49 22L26.95 22L30.17 13.47L31.50 13.47L34.73 22L33.18 22L32.49 20.01L29.18 20.01L28.49 22ZM30.83 15.28L29.60 18.82L32.07 18.82L30.83 15.28ZM41.14 22L38.69 22L38.69 13.47L41.21 13.47Q42.34 13.47 43.21 13.97Q44.09 14.48 44.57 15.40Q45.05 16.33 45.05 17.52L45.05 17.52L45.05 17.95Q45.05 19.16 44.57 20.08Q44.08 21.00 43.19 21.50Q42.30 22 41.14 22L41.14 22ZM40.17 14.66L40.17 20.82L41.14 20.82Q42.30 20.82 42.93 20.09Q43.55 19.36 43.56 17.99L43.56 17.99L43.56 17.52Q43.56 16.13 42.96 15.40Q42.35 14.66 41.21 14.66L41.21 14.66L40.17 14.66ZM55.09 22L49.51 22L49.51 13.47L55.05 13.47L55.05 14.66L51.00 14.66L51.00 17.02L54.50 17.02L54.50 18.19L51.00 18.19L51.00 20.82L55.09 20.82L55.09 22ZM66.65 22L64.68 13.47L66.15 13.47L67.47 19.88L69.10 13.47L70.34 13.47L71.96 19.89L73.27 13.47L74.74 13.47L72.77 22L71.35 22L69.73 15.77L68.07 22L66.65 22ZM80.38 22L78.90 22L78.90 13.47L80.38 13.47L80.38 22ZM86.87 14.66L84.23 14.66L84.23 13.47L91.00 13.47L91.00 14.66L88.34 14.66L88.34 22L86.87 22L86.87 14.66ZM96.24 22L94.75 22L94.75 13.47L96.24 13.47L96.24 17.02L100.05 17.02L100.05 13.47L101.53 13.47L101.53 22L100.05 22L100.05 18.21L96.24 18.21L96.24 22Z" fill="#FFFFFF"/><path class="svg__text" d="M132.04 22L127.50 22L127.50 13.60L131.80 13.60Q133.40 13.60 134.24 14.19Q135.09 14.79 135.09 15.79L135.09 15.79Q135.09 16.39 134.79 16.87Q134.49 17.34 133.95 17.62L133.95 17.62Q134.68 17.87 135.08 18.41Q135.49 18.94 135.49 19.70L135.49 19.70Q135.49 20.80 134.60 21.40Q133.71 22 132.04 22L132.04 22ZM129.85 18.58L129.85 20.28L131.85 20.28Q133.09 20.28 133.09 19.43L133.09 19.43Q133.09 18.58 131.85 18.58L131.85 18.58L129.85 18.58ZM129.85 15.31L129.85 16.94L131.48 16.94Q132.68 16.94 132.68 16.12L132.68 16.12Q132.68 15.31 131.48 15.31L131.48 15.31L129.85 15.31ZM146.59 22L140.21 22L140.21 13.60L142.59 13.60L142.59 20.11L146.59 20.11L146.59 22ZM150.58 17.80L150.58 17.80Q150.58 16.55 151.19 15.55Q151.79 14.56 152.85 14.00Q153.92 13.43 155.25 13.43L155.25 13.43Q156.58 13.43 157.64 14.00Q158.70 14.56 159.31 15.55Q159.92 16.55 159.92 17.80L159.92 17.80Q159.92 19.05 159.31 20.04Q158.70 21.04 157.64 21.60Q156.58 22.17 155.25 22.17L155.25 22.17Q153.92 22.17 152.85 21.60Q151.79 21.04 151.19 20.04Q150.58 19.05 150.58 17.80ZM152.98 17.80L152.98 17.80Q152.98 18.51 153.28 19.05Q153.58 19.60 154.10 19.90Q154.62 20.20 155.25 20.20L155.25 20.20Q155.89 20.20 156.40 19.90Q156.92 19.60 157.22 19.05Q157.52 18.51 157.52 17.80L157.52 17.80Q157.52 17.09 157.22 16.54Q156.92 16 156.40 15.70Q155.89 15.40 155.25 15.40L155.25 15.40Q154.61 15.40 154.10 15.70Q153.58 16 153.28 16.54Q152.98 17.09 152.98 17.80ZM164.22 17.80L164.22 17.80Q164.22 16.55 164.82 15.55Q165.43 14.56 166.49 14.00Q167.55 13.43 168.88 13.43L168.88 13.43Q170.21 13.43 171.28 14.00Q172.34 14.56 172.95 15.55Q173.55 16.55 173.55 17.80L173.55 17.80Q173.55 19.05 172.95 20.04Q172.34 21.04 171.28 21.60Q170.22 22.17 168.88 22.17L168.88 22.17Q167.55 22.17 166.49 21.60Q165.43 21.04 164.82 20.04Q164.22 19.05 164.22 17.80ZM166.62 17.80L166.62 17.80Q166.62 18.51 166.92 19.05Q167.22 19.60 167.73 19.90Q168.25 20.20 168.88 20.20L168.88 20.20Q169.52 20.20 170.04 19.90Q170.55 19.60 170.85 19.05Q171.15 18.51 171.15 17.80L171.15 17.80Q171.15 17.09 170.85 16.54Q170.55 16 170.04 15.70Q169.52 15.40 168.88 15.40L168.88 15.40Q168.24 15.40 167.73 15.70Q167.22 16 166.92 16.54Q166.62 17.09 166.62 17.80ZM182.25 22L178.28 22L178.28 13.60L182.25 13.60Q183.64 13.60 184.70 14.12Q185.77 14.63 186.36 15.58Q186.95 16.53 186.95 17.80L186.95 17.80Q186.95 19.07 186.36 20.02Q185.77 20.97 184.70 21.48Q183.64 22 182.25 22L182.25 22ZM180.66 15.50L180.66 20.10L182.16 20.10Q183.24 20.10 183.89 19.49Q184.54 18.88 184.54 17.80L184.54 17.80Q184.54 16.72 183.89 16.11Q183.24 15.50 182.16 15.50L182.16 15.50L180.66 15.50ZM200.07 22L197.64 22L201.35 13.60L203.69 13.60L207.41 22L204.94 22L204.28 20.37L200.73 20.37L200.07 22ZM202.50 15.93L201.42 18.61L203.58 18.61L202.50 15.93ZM213.89 22L211.56 22L211.56 13.60L213.52 13.60L217.23 18.07L217.23 13.60L219.55 13.60L219.55 22L217.60 22L213.89 17.52L213.89 22ZM228.69 22L224.72 22L224.72 13.60L228.69 13.60Q230.07 13.60 231.14 14.12Q232.20 14.63 232.79 15.58Q233.38 16.53 233.38 17.80L233.38 17.80Q233.38 19.07 232.79 20.02Q232.20 20.97 231.14 21.48Q230.07 22 228.69 22L228.69 22ZM227.10 15.50L227.10 20.10L228.60 20.10Q229.67 20.10 230.33 19.49Q230.98 18.88 230.98 17.80L230.98 17.80Q230.98 16.72 230.33 16.11Q229.67 15.50 228.60 15.50L228.60 15.50L227.10 15.50ZM246.88 15.48L244.29 15.48L244.29 13.60L251.82 13.60L251.82 15.48L249.25 15.48L249.25 22L246.88 22L246.88 15.48ZM262.93 22L256.19 22L256.19 13.60L262.78 13.60L262.78 15.44L258.54 15.44L258.54 16.85L262.28 16.85L262.28 18.63L258.54 18.63L258.54 20.17L262.93 20.17L262.93 22ZM269.15 22L266.73 22L270.44 13.60L272.78 13.60L276.50 22L274.03 22L273.37 20.37L269.82 20.37L269.15 22ZM271.59 15.93L270.51 18.61L272.67 18.61L271.59 15.93ZM283.03 22L280.65 22L280.65 13.60L284.49 13.60Q285.64 13.60 286.47 13.98Q287.31 14.35 287.77 15.06Q288.23 15.76 288.23 16.71L288.23 16.71Q288.23 17.62 287.80 18.30Q287.37 18.98 286.58 19.36L286.58 19.36L288.39 22L285.85 22L284.32 19.77L283.03 19.77L283.03 22ZM283.03 15.47L283.03 17.93L284.35 17.93Q285.08 17.93 285.45 17.61Q285.82 17.29 285.82 16.71L285.82 16.71Q285.82 16.12 285.45 15.79Q285.08 15.47 284.35 15.47L284.35 15.47L283.03 15.47ZM292.43 21.24L292.43 21.24L293.21 19.49Q293.77 19.86 294.51 20.09Q295.26 20.32 295.98 20.32L295.98 20.32Q297.34 20.32 297.35 19.64L297.35 19.64Q297.35 19.28 296.96 19.11Q296.57 18.93 295.70 18.74L295.70 18.74Q294.75 18.53 294.12 18.30Q293.48 18.06 293.03 17.55Q292.57 17.03 292.57 16.16L292.57 16.16Q292.57 15.39 292.99 14.77Q293.41 14.15 294.25 13.79Q295.08 13.43 296.29 13.43L296.29 13.43Q297.12 13.43 297.92 13.62Q298.73 13.80 299.34 14.17L299.34 14.17L298.61 15.93Q297.41 15.28 296.28 15.28L296.28 15.28Q295.57 15.28 295.25 15.49Q294.92 15.70 294.92 16.04L294.92 16.04Q294.92 16.37 295.31 16.54Q295.69 16.71 296.54 16.89L296.54 16.89Q297.50 17.10 298.13 17.33Q298.76 17.56 299.22 18.07Q299.69 18.58 299.69 19.46L299.69 19.46Q299.69 20.21 299.27 20.83Q298.85 21.44 298.01 21.80Q297.17 22.17 295.97 22.17L295.97 22.17Q294.95 22.17 293.99 21.92Q293.03 21.67 292.43 21.24Z" fill="#FFFFFF" x="126.31"/></svg>